<svg width="50" height="50" viewBox="0 0 50 50" fill="none" xmlns="http://www.w3.org/2000/svg">
<g id="Icon">
<path id="Star 1" d="M24.682 1.90356C25.0824 1.38819 25.8611 1.38819 26.2615 1.90356L28.6149 4.93313C28.9254 5.3328 29.4855 5.43751 29.9194 5.17698L33.2083 3.20215C33.7678 2.86621 34.494 3.14752 34.6811 3.77271L35.7812 7.44786C35.9264 7.9327 36.4108 8.23268 36.9095 8.14648L40.6898 7.49311C41.3328 7.38196 41.9083 7.90659 41.857 8.55717L41.5552 12.3816C41.5154 12.8861 41.8588 13.3408 42.3549 13.4406L46.1159 14.1969C46.7557 14.3256 47.1028 15.0227 46.8199 15.6108L45.157 19.0679C44.9376 19.524 45.0936 20.072 45.5202 20.3443L48.754 22.4082C49.3041 22.7593 49.3759 23.5347 48.8997 23.9809L46.1002 26.6038C45.7309 26.9498 45.6783 27.5172 45.9777 27.9252L48.2476 31.0179C48.6338 31.544 48.4206 32.293 47.8154 32.5371L44.2574 33.9716C43.788 34.1608 43.534 34.6709 43.6659 35.1596L44.6653 38.8634C44.8353 39.4934 44.366 40.1149 43.7134 40.1238L39.8775 40.1761C39.3715 40.1831 38.9504 40.5669 38.8968 41.0702L38.4907 44.8849C38.4216 45.5339 37.7596 45.9438 37.1479 45.7164L33.552 44.3795C33.0777 44.2032 32.5463 44.409 32.3146 44.8589L30.5579 48.2694C30.259 48.8495 29.4936 48.9926 29.0053 48.5596L26.1353 46.014C25.7567 45.6782 25.1868 45.6782 24.8082 46.014L21.9381 48.5596C21.4499 48.9926 20.6844 48.8495 20.3856 48.2694L18.6289 44.8589C18.3972 44.409 17.8658 44.2032 17.3914 44.3795L13.7956 45.7164C13.1839 45.9438 12.5218 45.5339 12.4528 44.8849L12.0467 41.0702C11.9931 40.5669 11.572 40.1831 11.066 40.1761L7.23004 40.1238C6.5775 40.1149 6.10821 39.4934 6.27822 38.8634L7.2776 35.1596C7.40944 34.6709 7.15545 34.1608 6.68607 33.9716L3.1281 32.5371C2.52284 32.293 2.30973 31.544 2.69586 31.0179L4.96573 27.9252C5.26518 27.5172 5.2126 26.9498 4.84328 26.6038L2.04379 23.9809C1.56755 23.5347 1.63941 22.7593 2.18952 22.4082L5.42331 20.3443C5.84993 20.072 6.00587 19.524 5.78649 19.0679L4.12355 15.6108C3.84066 15.0227 4.18777 14.3256 4.82756 14.1969L8.58854 13.4406C9.08471 13.3408 9.42811 12.8861 9.38829 12.3816L9.0865 8.55717C9.03516 7.90659 9.61065 7.38196 10.2537 7.49311L14.0339 8.14648C14.5326 8.23268 15.0171 7.9327 15.1623 7.44786L16.2624 3.77271C16.4495 3.14751 17.1757 2.86621 17.7352 3.20215L21.0241 5.17698C21.458 5.43751 22.0181 5.3328 22.3286 4.93313L24.682 1.90356Z" stroke="#030211" stroke-opacity="0.6" stroke-width="1.5"/>
<path id="Vector" d="M22.3789 32.387H20.1289C18.7365 32.387 17.4012 31.8338 16.4166 30.8493C15.432 29.8647 14.8789 28.5293 14.8789 27.137C14.8789 25.7446 15.432 24.4092 16.4166 23.4247C17.4012 22.4401 18.7365 21.887 20.1289 21.887C20.5682 21.8868 21.0058 21.9403 21.432 22.0463M20.8789 24.887C20.8789 23.6986 21.1613 22.5272 21.7028 21.4694C22.2444 20.4115 23.0295 19.4975 23.9936 18.8026C24.9576 18.1078 26.073 17.652 27.2478 17.4727C28.4226 17.2935 29.6232 17.396 30.7506 17.7718C31.878 18.1476 32.9 18.786 33.7323 19.6342C34.5646 20.4825 35.1834 21.5164 35.5378 22.6507C35.8921 23.785 35.9718 24.9873 35.7703 26.1585C35.5688 27.3297 35.0919 28.4363 34.3789 29.387M24.4508 28.0651L27.6289 24.887M27.6289 24.887L30.807 28.0651M27.6289 24.887V32.387" stroke="black" stroke-width="2" stroke-linecap="round" stroke-linejoin="round"/>
</g>
</svg>
