<svg width="221" height="221" viewBox="0 0 221 221" fill="none" xmlns="http://www.w3.org/2000/svg">
<path d="M103.205 4.8449C107.769 1.96552 113.582 1.96552 118.146 4.8449L124.415 8.80015C127.435 10.7055 131.069 11.3849 134.573 10.6991L141.848 9.27566C147.144 8.23939 152.564 10.3391 155.779 14.6727L160.196 20.6256C162.324 23.4933 165.468 25.4395 168.983 26.066L176.281 27.3666C181.593 28.3134 185.889 32.2293 187.322 37.4318L189.29 44.5783C190.238 48.021 192.466 50.9713 195.518 52.8255L201.853 56.6744C206.465 59.4764 209.056 64.6796 208.513 70.0485L207.766 77.4234C207.407 80.9762 208.419 84.5321 210.595 87.3635L215.111 93.241C218.4 97.5198 218.936 103.307 216.49 108.118L213.13 114.725C211.511 117.908 211.17 121.589 212.176 125.015L214.265 132.128C215.786 137.305 214.195 142.896 210.176 146.498L204.657 151.445C201.997 153.829 200.35 157.138 200.05 160.696L199.428 168.083C198.976 173.46 195.473 178.099 190.425 180.005L183.49 182.625C180.15 183.887 177.418 186.377 175.853 189.587L172.605 196.25C170.241 201.101 165.299 204.161 159.903 204.115L152.49 204.053C148.919 204.023 145.472 205.358 142.854 207.786L137.418 212.826C133.461 216.495 127.747 217.563 122.732 215.571L115.843 212.835C112.524 211.517 108.827 211.517 105.508 212.835L98.6189 215.571C93.6036 217.563 87.89 216.495 83.9329 212.826L78.4973 207.786C75.8787 205.358 72.4313 204.023 68.8605 204.053L61.4482 204.115C56.0521 204.161 51.1102 201.101 48.7457 196.25L45.4977 189.587C43.933 186.377 41.2009 183.887 37.8603 182.625L30.9259 180.005C25.8778 178.099 22.3749 173.46 21.9224 168.083L21.3007 160.696C21.0012 157.138 19.3533 153.829 16.6942 151.445L11.1743 146.498C7.15582 142.896 5.56515 137.305 7.08565 132.128L9.17425 125.015C10.1804 121.589 9.8393 117.908 8.22069 114.725L4.86078 108.118C2.41478 103.307 2.95109 97.5198 6.2393 93.241L10.7561 87.3635C12.932 84.5321 13.9438 80.9762 13.5843 77.4234L12.8381 70.0485C12.2949 64.6796 14.8858 59.4764 19.4976 56.6744L25.8326 52.8255C28.8844 50.9713 31.1124 48.021 32.0606 44.5783L34.029 37.4318C35.4619 32.2293 39.7574 28.3134 45.07 27.3666L52.3676 26.066C55.8832 25.4395 59.0264 23.4933 61.1543 20.6256L65.5713 14.6727C68.7869 10.3391 74.2069 8.23939 79.5028 9.27566L86.7774 10.6991C90.2819 11.3849 93.9159 10.7055 96.936 8.80015L103.205 4.8449Z" fill="white"/>
<path d="M72.1467 90.312C71.6187 90.312 71.0907 90.27 70.5627 90.186C70.0347 90.114 69.5367 90 69.0687 89.844C68.6007 89.676 68.1807 89.472 67.8087 89.232C67.5927 89.088 67.4427 88.914 67.3587 88.71C67.2747 88.506 67.2447 88.308 67.2687 88.116C67.3047 87.912 67.3827 87.738 67.5027 87.594C67.6347 87.438 67.7967 87.342 67.9887 87.306C68.1807 87.27 68.3907 87.324 68.6187 87.468C69.1467 87.78 69.7047 88.008 70.2927 88.152C70.8807 88.296 71.4987 88.368 72.1467 88.368C73.0947 88.368 73.7847 88.212 74.2167 87.9C74.6487 87.576 74.8647 87.162 74.8647 86.658C74.8647 86.238 74.7087 85.908 74.3967 85.668C74.0967 85.428 73.5747 85.23 72.8307 85.074L70.8507 84.66C69.7107 84.42 68.8587 84.018 68.2947 83.454C67.7427 82.878 67.4667 82.122 67.4667 81.186C67.4667 80.598 67.5867 80.064 67.8267 79.584C68.0667 79.104 68.4027 78.69 68.8347 78.342C69.2787 77.994 69.8007 77.73 70.4007 77.55C71.0127 77.358 71.6847 77.262 72.4167 77.262C73.1367 77.262 73.8207 77.352 74.4687 77.532C75.1167 77.712 75.6987 77.976 76.2147 78.324C76.4067 78.456 76.5327 78.618 76.5927 78.81C76.6647 79.002 76.6827 79.194 76.6467 79.386C76.6107 79.566 76.5267 79.722 76.3947 79.854C76.2627 79.986 76.0947 80.064 75.8907 80.088C75.6987 80.112 75.4767 80.052 75.2247 79.908C74.7807 79.656 74.3307 79.476 73.8747 79.368C73.4187 79.26 72.9267 79.206 72.3987 79.206C71.8467 79.206 71.3727 79.284 70.9767 79.44C70.5807 79.596 70.2747 79.818 70.0587 80.106C69.8547 80.382 69.7527 80.712 69.7527 81.096C69.7527 81.528 69.8967 81.876 70.1847 82.14C70.4727 82.392 70.9647 82.59 71.6607 82.734L73.6227 83.148C74.8107 83.4 75.6927 83.796 76.2687 84.336C76.8567 84.876 77.1507 85.596 77.1507 86.496C77.1507 87.072 77.0307 87.594 76.7907 88.062C76.5627 88.53 76.2267 88.932 75.7827 89.268C75.3507 89.604 74.8287 89.862 74.2167 90.042C73.6047 90.222 72.9147 90.312 72.1467 90.312ZM83.2502 90.312C82.2542 90.312 81.3962 90.126 80.6762 89.754C79.9562 89.382 79.3982 88.854 79.0022 88.17C78.6182 87.486 78.4262 86.676 78.4262 85.74C78.4262 84.828 78.6122 84.03 78.9842 83.346C79.3682 82.662 79.8902 82.128 80.5502 81.744C81.2222 81.348 81.9842 81.15 82.8362 81.15C83.4602 81.15 84.0182 81.252 84.5102 81.456C85.0142 81.66 85.4402 81.954 85.7882 82.338C86.1482 82.722 86.4182 83.19 86.5982 83.742C86.7902 84.282 86.8862 84.894 86.8862 85.578C86.8862 85.794 86.8082 85.962 86.6522 86.082C86.5082 86.19 86.2982 86.244 86.0222 86.244H80.2442V84.948H85.3022L85.0142 85.218C85.0142 84.666 84.9302 84.204 84.7622 83.832C84.6062 83.46 84.3722 83.178 84.0602 82.986C83.7602 82.782 83.3822 82.68 82.9262 82.68C82.4222 82.68 81.9902 82.8 81.6302 83.04C81.2822 83.268 81.0122 83.598 80.8202 84.03C80.6402 84.45 80.5502 84.954 80.5502 85.542V85.668C80.5502 86.652 80.7782 87.39 81.2342 87.882C81.7022 88.362 82.3862 88.602 83.2862 88.602C83.5982 88.602 83.9462 88.566 84.3302 88.494C84.7262 88.41 85.0982 88.272 85.4462 88.08C85.6982 87.936 85.9202 87.876 86.1122 87.9C86.3042 87.912 86.4542 87.978 86.5622 88.098C86.6822 88.218 86.7542 88.368 86.7782 88.548C86.8022 88.716 86.7662 88.89 86.6702 89.07C86.5862 89.25 86.4362 89.406 86.2202 89.538C85.8002 89.802 85.3142 90 84.7622 90.132C84.2222 90.252 83.7182 90.312 83.2502 90.312ZM93.006 90.312C92.01 90.312 91.152 90.126 90.432 89.754C89.712 89.382 89.154 88.854 88.758 88.17C88.374 87.486 88.182 86.676 88.182 85.74C88.182 84.828 88.368 84.03 88.74 83.346C89.124 82.662 89.646 82.128 90.306 81.744C90.978 81.348 91.74 81.15 92.592 81.15C93.216 81.15 93.774 81.252 94.266 81.456C94.77 81.66 95.196 81.954 95.544 82.338C95.904 82.722 96.174 83.19 96.354 83.742C96.546 84.282 96.642 84.894 96.642 85.578C96.642 85.794 96.564 85.962 96.408 86.082C96.264 86.19 96.054 86.244 95.778 86.244H90V84.948H95.058L94.77 85.218C94.77 84.666 94.686 84.204 94.518 83.832C94.362 83.46 94.128 83.178 93.816 82.986C93.516 82.782 93.138 82.68 92.682 82.68C92.178 82.68 91.746 82.8 91.386 83.04C91.038 83.268 90.768 83.598 90.576 84.03C90.396 84.45 90.306 84.954 90.306 85.542V85.668C90.306 86.652 90.534 87.39 90.99 87.882C91.458 88.362 92.142 88.602 93.042 88.602C93.354 88.602 93.702 88.566 94.086 88.494C94.482 88.41 94.854 88.272 95.202 88.08C95.454 87.936 95.676 87.876 95.868 87.9C96.06 87.912 96.21 87.978 96.318 88.098C96.438 88.218 96.51 88.368 96.534 88.548C96.558 88.716 96.522 88.89 96.426 89.07C96.342 89.25 96.192 89.406 95.976 89.538C95.556 89.802 95.07 90 94.518 90.132C93.978 90.252 93.474 90.312 93.006 90.312ZM67.8987 115.276C67.6107 115.276 67.3767 115.21 67.1967 115.078C67.0287 114.946 66.9267 114.772 66.8907 114.556C66.8547 114.328 66.8967 114.076 67.0167 113.8L71.7687 103.27C71.9247 102.922 72.1107 102.676 72.3267 102.532C72.5547 102.376 72.8127 102.298 73.1007 102.298C73.3767 102.298 73.6227 102.376 73.8387 102.532C74.0667 102.676 74.2587 102.922 74.4147 103.27L79.1847 113.8C79.3167 114.076 79.3647 114.328 79.3287 114.556C79.2927 114.784 79.1907 114.964 79.0227 115.096C78.8547 115.216 78.6327 115.276 78.3567 115.276C78.0207 115.276 77.7567 115.198 77.5647 115.042C77.3847 114.874 77.2227 114.622 77.0787 114.286L75.9087 111.568L76.8807 112.198H69.2847L70.2567 111.568L69.1047 114.286C68.9487 114.634 68.7867 114.886 68.6187 115.042C68.4507 115.198 68.2107 115.276 67.8987 115.276ZM73.0647 104.944L70.5447 110.938L70.0767 110.362H76.0887L75.6387 110.938L73.1007 104.944H73.0647ZM83.9573 115.312C82.9613 115.312 82.2113 115.03 81.7073 114.466C81.2033 113.89 80.9513 113.05 80.9513 111.946V103.432C80.9513 103.06 81.0473 102.778 81.2393 102.586C81.4313 102.394 81.7073 102.298 82.0673 102.298C82.4273 102.298 82.7033 102.394 82.8953 102.586C83.0993 102.778 83.2013 103.06 83.2013 103.432V111.838C83.2013 112.39 83.3153 112.798 83.5433 113.062C83.7833 113.326 84.1193 113.458 84.5513 113.458C84.6473 113.458 84.7373 113.458 84.8213 113.458C84.9053 113.446 84.9893 113.434 85.0732 113.422C85.2413 113.398 85.3553 113.446 85.4153 113.566C85.4753 113.674 85.5053 113.902 85.5053 114.25C85.5053 114.55 85.4453 114.784 85.3253 114.952C85.2053 115.12 85.0073 115.222 84.7313 115.258C84.6113 115.27 84.4853 115.282 84.3533 115.294C84.2213 115.306 84.0893 115.312 83.9573 115.312ZM89.7053 115.312C88.7093 115.312 87.9593 115.03 87.4553 114.466C86.9513 113.89 86.6993 113.05 86.6993 111.946V103.432C86.6993 103.06 86.7953 102.778 86.9873 102.586C87.1793 102.394 87.4553 102.298 87.8153 102.298C88.1753 102.298 88.4513 102.394 88.6433 102.586C88.8473 102.778 88.9493 103.06 88.9493 103.432V111.838C88.9493 112.39 89.0633 112.798 89.2913 113.062C89.5313 113.326 89.8673 113.458 90.2993 113.458C90.3953 113.458 90.4853 113.458 90.5693 113.458C90.6533 113.446 90.7373 113.434 90.8213 113.422C90.9893 113.398 91.1033 113.446 91.1633 113.566C91.2233 113.674 91.2533 113.902 91.2533 114.25C91.2533 114.55 91.1933 114.784 91.0733 114.952C90.9533 115.12 90.7553 115.222 90.4793 115.258C90.3593 115.27 90.2333 115.282 90.1013 115.294C89.9693 115.306 89.8373 115.312 89.7053 115.312ZM98.7021 115.276C98.3301 115.276 98.0421 115.174 97.8381 114.97C97.6461 114.754 97.5501 114.46 97.5501 114.088V103.612C97.5501 103.228 97.6521 102.94 97.8561 102.748C98.0601 102.544 98.3481 102.442 98.7201 102.442H103.058C104.45 102.442 105.524 102.79 106.28 103.486C107.036 104.182 107.414 105.154 107.414 106.402C107.414 107.65 107.036 108.628 106.28 109.336C105.524 110.032 104.45 110.38 103.058 110.38H99.8541V114.088C99.8541 114.46 99.7581 114.754 99.5661 114.97C99.3741 115.174 99.0861 115.276 98.7021 115.276ZM99.8541 108.562H102.698C103.514 108.562 104.132 108.382 104.552 108.022C104.972 107.65 105.182 107.11 105.182 106.402C105.182 105.694 104.972 105.16 104.552 104.8C104.132 104.44 103.514 104.26 102.698 104.26H99.8541V108.562ZM110.052 115.276C109.68 115.276 109.392 115.18 109.188 114.988C108.996 114.784 108.9 114.496 108.9 114.124V107.32C108.9 106.948 108.996 106.666 109.188 106.474C109.38 106.282 109.65 106.186 109.998 106.186C110.346 106.186 110.616 106.282 110.808 106.474C111 106.666 111.096 106.948 111.096 107.32V108.454H110.916C111.084 107.734 111.414 107.188 111.906 106.816C112.398 106.444 113.052 106.222 113.868 106.15C114.12 106.126 114.318 106.192 114.462 106.348C114.618 106.492 114.708 106.72 114.732 107.032C114.756 107.332 114.684 107.578 114.516 107.77C114.36 107.95 114.12 108.058 113.796 108.094L113.4 108.13C112.668 108.202 112.116 108.43 111.744 108.814C111.372 109.186 111.186 109.714 111.186 110.398V114.124C111.186 114.496 111.09 114.784 110.898 114.988C110.706 115.18 110.424 115.276 110.052 115.276ZM119.823 115.312C118.911 115.312 118.119 115.126 117.447 114.754C116.775 114.382 116.253 113.854 115.881 113.17C115.509 112.474 115.323 111.658 115.323 110.722C115.323 110.014 115.425 109.384 115.629 108.832C115.845 108.268 116.151 107.788 116.547 107.392C116.943 106.984 117.417 106.678 117.969 106.474C118.521 106.258 119.139 106.15 119.823 106.15C120.735 106.15 121.527 106.336 122.199 106.708C122.871 107.08 123.393 107.608 123.765 108.292C124.137 108.976 124.323 109.786 124.323 110.722C124.323 111.43 124.215 112.066 123.999 112.63C123.795 113.194 123.495 113.68 123.099 114.088C122.703 114.484 122.229 114.79 121.677 115.006C121.125 115.21 120.507 115.312 119.823 115.312ZM119.823 113.602C120.267 113.602 120.657 113.494 120.993 113.278C121.329 113.062 121.587 112.744 121.767 112.324C121.959 111.892 122.055 111.358 122.055 110.722C122.055 109.762 121.851 109.048 121.443 108.58C121.035 108.1 120.495 107.86 119.823 107.86C119.379 107.86 118.989 107.968 118.653 108.184C118.317 108.388 118.053 108.706 117.861 109.138C117.681 109.558 117.591 110.086 117.591 110.722C117.591 111.67 117.795 112.39 118.203 112.882C118.611 113.362 119.151 113.602 119.823 113.602ZM125.1 118.534C124.836 118.558 124.62 118.516 124.452 118.408C124.284 118.312 124.17 118.186 124.11 118.03C124.038 117.874 124.014 117.712 124.038 117.544C124.062 117.376 124.134 117.226 124.254 117.094C124.362 116.974 124.512 116.908 124.704 116.896C125.244 116.848 125.634 116.692 125.874 116.428C126.126 116.176 126.252 115.786 126.252 115.258V107.32C126.252 106.948 126.348 106.666 126.54 106.474C126.744 106.282 127.026 106.186 127.386 106.186C127.746 106.186 128.022 106.282 128.214 106.474C128.406 106.666 128.502 106.948 128.502 107.32V115.06C128.502 115.828 128.376 116.458 128.124 116.95C127.884 117.442 127.512 117.814 127.008 118.066C126.516 118.318 125.88 118.474 125.1 118.534ZM127.368 104.53C126.948 104.53 126.618 104.428 126.378 104.224C126.15 104.008 126.036 103.714 126.036 103.342C126.036 102.958 126.15 102.664 126.378 102.46C126.618 102.256 126.948 102.154 127.368 102.154C127.8 102.154 128.13 102.256 128.358 102.46C128.586 102.664 128.7 102.958 128.7 103.342C128.7 103.714 128.586 104.008 128.358 104.224C128.13 104.428 127.8 104.53 127.368 104.53ZM135.176 115.312C134.18 115.312 133.322 115.126 132.602 114.754C131.882 114.382 131.324 113.854 130.928 113.17C130.544 112.486 130.352 111.676 130.352 110.74C130.352 109.828 130.538 109.03 130.91 108.346C131.294 107.662 131.816 107.128 132.476 106.744C133.148 106.348 133.91 106.15 134.762 106.15C135.386 106.15 135.944 106.252 136.436 106.456C136.94 106.66 137.366 106.954 137.714 107.338C138.074 107.722 138.344 108.19 138.524 108.742C138.716 109.282 138.812 109.894 138.812 110.578C138.812 110.794 138.734 110.962 138.578 111.082C138.434 111.19 138.224 111.244 137.948 111.244H132.17V109.948H137.228L136.94 110.218C136.94 109.666 136.856 109.204 136.688 108.832C136.532 108.46 136.298 108.178 135.986 107.986C135.686 107.782 135.308 107.68 134.852 107.68C134.348 107.68 133.916 107.8 133.556 108.04C133.208 108.268 132.938 108.598 132.746 109.03C132.566 109.45 132.476 109.954 132.476 110.542V110.668C132.476 111.652 132.704 112.39 133.16 112.882C133.628 113.362 134.312 113.602 135.212 113.602C135.524 113.602 135.872 113.566 136.256 113.494C136.652 113.41 137.024 113.272 137.372 113.08C137.624 112.936 137.846 112.876 138.038 112.9C138.23 112.912 138.38 112.978 138.488 113.098C138.608 113.218 138.68 113.368 138.704 113.548C138.728 113.716 138.692 113.89 138.596 114.07C138.512 114.25 138.362 114.406 138.146 114.538C137.726 114.802 137.24 115 136.688 115.132C136.148 115.252 135.644 115.312 135.176 115.312ZM144.662 115.312C143.738 115.312 142.934 115.126 142.25 114.754C141.566 114.37 141.038 113.83 140.666 113.134C140.294 112.438 140.108 111.622 140.108 110.686C140.108 109.978 140.21 109.348 140.414 108.796C140.63 108.232 140.936 107.758 141.332 107.374C141.728 106.978 142.208 106.678 142.772 106.474C143.336 106.258 143.966 106.15 144.662 106.15C145.058 106.15 145.484 106.204 145.94 106.312C146.408 106.42 146.846 106.6 147.254 106.852C147.446 106.972 147.572 107.116 147.632 107.284C147.692 107.452 147.704 107.626 147.668 107.806C147.632 107.974 147.554 108.124 147.434 108.256C147.326 108.376 147.188 108.454 147.02 108.49C146.852 108.514 146.666 108.472 146.462 108.364C146.198 108.208 145.928 108.094 145.652 108.022C145.376 107.938 145.112 107.896 144.86 107.896C144.464 107.896 144.116 107.962 143.816 108.094C143.516 108.214 143.258 108.394 143.042 108.634C142.838 108.862 142.682 109.15 142.574 109.498C142.466 109.846 142.412 110.248 142.412 110.704C142.412 111.592 142.622 112.294 143.042 112.81C143.474 113.314 144.08 113.566 144.86 113.566C145.112 113.566 145.37 113.53 145.634 113.458C145.91 113.386 146.186 113.272 146.462 113.116C146.666 113.008 146.846 112.972 147.002 113.008C147.17 113.044 147.308 113.128 147.416 113.26C147.524 113.38 147.59 113.53 147.614 113.71C147.638 113.878 147.614 114.046 147.542 114.214C147.482 114.382 147.362 114.52 147.182 114.628C146.786 114.868 146.366 115.042 145.922 115.15C145.478 115.258 145.058 115.312 144.662 115.312ZM153.151 115.312C152.371 115.312 151.717 115.18 151.189 114.916C150.673 114.652 150.289 114.268 150.037 113.764C149.785 113.248 149.659 112.612 149.659 111.856V108.022H148.723C148.435 108.022 148.213 107.95 148.057 107.806C147.901 107.65 147.823 107.44 147.823 107.176C147.823 106.9 147.901 106.69 148.057 106.546C148.213 106.402 148.435 106.33 148.723 106.33H149.659V104.692C149.659 104.32 149.755 104.038 149.947 103.846C150.151 103.654 150.433 103.558 150.793 103.558C151.153 103.558 151.429 103.654 151.621 103.846C151.813 104.038 151.909 104.32 151.909 104.692V106.33H153.817C154.105 106.33 154.327 106.402 154.483 106.546C154.639 106.69 154.717 106.9 154.717 107.176C154.717 107.44 154.639 107.65 154.483 107.806C154.327 107.95 154.105 108.022 153.817 108.022H151.909V111.73C151.909 112.306 152.035 112.738 152.287 113.026C152.539 113.314 152.947 113.458 153.511 113.458C153.715 113.458 153.895 113.44 154.051 113.404C154.207 113.368 154.345 113.344 154.465 113.332C154.609 113.32 154.729 113.368 154.825 113.476C154.921 113.572 154.969 113.776 154.969 114.088C154.969 114.328 154.927 114.544 154.843 114.736C154.771 114.916 154.633 115.042 154.429 115.114C154.273 115.162 154.069 115.204 153.817 115.24C153.565 115.288 153.343 115.312 153.151 115.312Z" fill="#030211"/>
<path d="M87.3498 137.529C87.5399 137.72 87.6465 137.98 87.6465 138.25C87.6465 138.52 87.5399 138.779 87.3498 138.971L78.2409 148.08C78.0467 148.265 77.7886 148.37 77.5198 148.371C77.3855 148.37 77.2525 148.344 77.1276 148.295C76.9434 148.217 76.7863 148.087 76.6759 147.921C76.5656 147.754 76.5071 147.558 76.5077 147.359V139.262H67.3988C67.1304 139.262 66.873 139.155 66.6832 138.965C66.4934 138.776 66.3867 138.518 66.3867 138.25C66.3867 137.981 66.4934 137.724 66.6832 137.534C66.873 137.344 67.1304 137.238 67.3988 137.238H76.5077V129.141C76.5071 128.941 76.5656 128.745 76.6759 128.579C76.7863 128.412 76.9434 128.282 77.1276 128.205C77.3146 128.132 77.5183 128.113 77.7154 128.151C77.9124 128.189 78.0946 128.282 78.2409 128.42L87.3498 137.529Z" fill="#030211"/>
</svg>
