<svg width="1747" height="467" viewBox="0 0 1747 467" fill="none" xmlns="http://www.w3.org/2000/svg">
<path d="M1735.8 315.079L1728.47 317.685L1731.81 324.712L1724.78 321.372L1722.18 328.702L1719.57 321.372L1712.54 324.712L1715.88 317.685L1708.55 315.079L1715.88 312.472L1712.54 305.445L1719.57 308.785L1722.18 301.455L1724.78 308.785L1731.81 305.445L1728.47 312.472L1735.8 315.079Z" fill="#D4D4D4"/>
<path d="M25.2021 312.554L18.6701 314.877L21.6464 321.138L15.3851 318.162L13.0622 324.694L10.7393 318.162L4.47794 321.138L7.45426 314.877L0.922231 312.554L7.45426 310.231L4.47794 303.97L10.7393 306.946L13.0622 300.414L15.3851 306.946L21.6464 303.97L18.6701 310.231L25.2021 312.554Z" fill="#D4D4D4"/>
<path d="M1746.62 51.1693L1739.55 53.6831L1742.78 60.4592L1736 57.2382L1733.49 64.3073L1730.97 57.2382L1724.2 60.4592L1727.42 53.6831L1720.35 51.1693L1727.42 48.6554L1724.2 41.8793L1730.97 45.1003L1733.49 38.0312L1736 45.1003L1742.78 41.8793L1739.55 48.6554L1746.62 51.1693Z" fill="#1C1C1C"/>
<path d="M1491.19 56.2308L1483.16 59.0883L1486.82 66.7907L1479.11 63.1294L1476.26 71.1648L1473.4 63.1294L1465.7 66.7907L1469.36 59.0883L1461.32 56.2308L1469.36 53.3733L1465.7 45.6709L1473.4 49.3322L1476.26 41.2969L1479.11 49.3322L1486.82 45.6709L1483.16 53.3733L1491.19 56.2308Z" fill="#D5D5D5"/>
<path d="M290.052 80.9769L282.631 83.6157L286.012 90.7288L278.899 87.3476L276.26 94.7682L273.622 87.3476L266.508 90.7288L269.89 83.6157L262.469 80.9769L269.89 78.338L266.508 71.2249L273.622 74.6061L276.26 67.1855L278.899 74.6061L286.012 71.2249L282.631 78.338L290.052 80.9769Z" fill="#D4D4D4"/>
<path d="M64.5381 23.0609L52.4568 27.3571L57.9616 38.9378L46.3809 33.433L42.0846 45.5143L37.7884 33.433L26.2077 38.9378L31.7125 27.3571L19.6312 23.0609L31.7125 18.7646L26.2077 7.18388L37.7884 12.6887L42.0847 0.607421L46.3809 12.6887L57.9616 7.18388L52.4568 18.7646L64.5381 23.0609Z" fill="#1C1C1C"/>
<path d="M1537.58 439.401L1530.03 442.088L1533.47 449.331L1526.23 445.888L1523.54 453.444L1520.85 445.888L1513.61 449.331L1517.05 442.088L1509.5 439.401L1517.05 436.714L1513.61 429.471L1520.85 432.914L1523.54 425.357L1526.23 432.914L1533.47 429.471L1530.03 436.714L1537.58 439.401Z" fill="#1C1C1C"/>
<path d="M226.508 451.274L218.164 454.242L221.966 462.239L213.968 458.438L211.001 466.781L208.034 458.438L200.036 462.239L203.838 454.242L195.494 451.274L203.838 448.307L200.036 440.309L208.034 444.111L211.001 435.768L213.968 444.111L221.966 440.309L218.164 448.307L226.508 451.274Z" fill="#030211"/>
</svg>
