<svg width="50" height="50" viewBox="0 0 50 50" fill="none" xmlns="http://www.w3.org/2000/svg">
<g id="Icon">
<path id="Star 1" d="M24.682 1.95995C25.0824 1.44458 25.8611 1.44458 26.2615 1.95995L28.6149 4.98952C28.9254 5.3892 29.4855 5.4939 29.9194 5.23338L33.2083 3.25855C33.7678 2.9226 34.494 3.20391 34.6811 3.82911L35.7812 7.50426C35.9264 7.9891 36.4108 8.28908 36.9095 8.20288L40.6898 7.54951C41.3328 7.43836 41.9083 7.96298 41.857 8.61356L41.5552 12.4379C41.5154 12.9425 41.8588 13.3972 42.3549 13.497L46.1159 14.2533C46.7557 14.382 47.1028 15.0791 46.8199 15.6672L45.157 19.1243C44.9376 19.5804 45.0936 20.1284 45.5202 20.4007L48.754 22.4646C49.3041 22.8157 49.3759 23.5911 48.8997 24.0373L46.1002 26.6602C45.7309 27.0062 45.6783 27.5736 45.9777 27.9816L48.2476 31.0743C48.6338 31.6004 48.4206 32.3494 47.8154 32.5935L44.2574 34.028C43.788 34.2172 43.534 34.7273 43.6659 35.2159L44.6653 38.9198C44.8353 39.5498 44.366 40.1713 43.7134 40.1802L39.8775 40.2325C39.3715 40.2394 38.9504 40.6233 38.8968 41.1266L38.4907 44.9413C38.4216 45.5903 37.7596 46.0002 37.1479 45.7728L33.552 44.4359C33.0777 44.2596 32.5463 44.4654 32.3146 44.9153L30.5579 48.3258C30.259 48.9059 29.4936 49.049 29.0053 48.616L26.1353 46.0704C25.7567 45.7346 25.1868 45.7346 24.8082 46.0704L21.9381 48.616C21.4499 49.049 20.6844 48.9059 20.3856 48.3258L18.6289 44.9153C18.3972 44.4654 17.8658 44.2596 17.3914 44.4359L13.7956 45.7728C13.1839 46.0002 12.5218 45.5903 12.4528 44.9413L12.0467 41.1266C11.9931 40.6233 11.572 40.2394 11.066 40.2325L7.23004 40.1802C6.5775 40.1713 6.10821 39.5498 6.27822 38.9198L7.2776 35.2159C7.40944 34.7273 7.15545 34.2172 6.68607 34.028L3.1281 32.5935C2.52284 32.3494 2.30973 31.6004 2.69586 31.0743L4.96573 27.9816C5.26518 27.5736 5.2126 27.0062 4.84328 26.6602L2.04379 24.0373C1.56755 23.5911 1.63941 22.8157 2.18952 22.4646L5.42331 20.4007C5.84993 20.1284 6.00587 19.5804 5.78649 19.1243L4.12355 15.6672C3.84066 15.0791 4.18777 14.382 4.82756 14.2533L8.58854 13.497C9.08471 13.3972 9.42811 12.9425 9.38829 12.4379L9.0865 8.61356C9.03516 7.96298 9.61065 7.43836 10.2537 7.54951L14.0339 8.20288C14.5326 8.28908 15.0171 7.9891 15.1623 7.50426L16.2624 3.8291C16.4495 3.20391 17.1757 2.9226 17.7352 3.25855L21.0241 5.23338C21.458 5.4939 22.0181 5.3892 22.3286 4.98952L24.682 1.95995Z" stroke="#030211" stroke-opacity="0.6" stroke-width="1.5"/>
<path id="Vector" d="M20.0167 22.0059L15.9258 25.415L20.0167 28.8241M30.9258 22.0059L35.0167 25.415L30.9258 28.8241M28.1985 17.915L22.744 32.915" stroke="black" stroke-width="2" stroke-linecap="round" stroke-linejoin="round"/>
</g>
</svg>
