<svg width="825" height="840" viewBox="0 0 825 840" fill="none" xmlns="http://www.w3.org/2000/svg">
<path d="M824.539 72.4689L3.93693 72.4689M824.539 211.226L3.93693 211.226M824.539 141.848L3.93693 141.848M824.539 280.605L3.93693 280.605M824.539 349.984L3.93693 349.984M824.539 419.363L3.93693 419.362M821.538 627.499L0.936523 627.499M824.539 488.741L3.93693 488.741M821.538 696.877L0.936523 696.877M824.539 558.12L3.93693 558.12M821.538 766.256L0.936523 766.256M73.9534 0.661011L73.9534 836.659M210.608 0.661011L210.608 836.659M142.281 0.661011L142.281 836.659M278.935 0.661011L278.935 836.659M347.262 0.661011L347.262 836.659M415.59 0.661011L415.59 836.659M620.572 3.7177L620.572 839.716M483.917 0.661011L483.917 836.659M688.899 3.7177V839.716M552.244 0.661011L552.244 836.659M757.226 3.7177V839.716" stroke="url(#paint0_radial_1_3216)" stroke-opacity="0.6"/>
<defs>
<radialGradient id="paint0_radial_1_3216" cx="0" cy="0" r="1" gradientUnits="userSpaceOnUse" gradientTransform="translate(412.738 420.188) rotate(90) scale(419.527 411.801)">
<stop stop-color="#878787"/>
<stop offset="1" stop-color="#373737" stop-opacity="0"/>
</radialGradient>
</defs>
</svg>
