<svg width="19" height="18" viewBox="0 0 19 18" fill="none" xmlns="http://www.w3.org/2000/svg">
<path d="M13.637 2.08206C14.6288 2.08491 15.5791 2.46529 16.2804 3.14013C16.9817 3.81496 17.377 4.72942 17.3799 5.68378V12.8865C17.377 13.8408 16.9817 14.7553 16.2804 15.4301C15.5791 16.1049 14.6288 16.4853 13.637 16.4882H6.15196C5.16019 16.4853 4.20988 16.1049 3.50859 15.4301C2.80729 14.7553 2.412 13.8408 2.40904 12.8865V5.68378C2.412 4.72942 2.80729 3.81496 3.50859 3.14013C4.20988 2.46529 5.16019 2.08491 6.15196 2.08206H13.637ZM13.637 0.641602H6.15196C3.26998 0.641602 0.912109 2.91052 0.912109 5.68378V12.8865C0.912109 15.6597 3.26998 17.9286 6.15196 17.9286H13.637C16.519 17.9286 18.8769 15.6597 18.8769 12.8865V5.68378C18.8769 2.91052 16.519 0.641602 13.637 0.641602Z" fill="#030211"/>
<path d="M14.7598 5.68432C14.5378 5.68432 14.3207 5.62095 14.136 5.50223C13.9514 5.38351 13.8075 5.21477 13.7225 5.01734C13.6375 4.81992 13.6153 4.60268 13.6586 4.39309C13.7019 4.18351 13.8089 3.99099 13.9659 3.83989C14.1229 3.68879 14.323 3.58589 14.5408 3.5442C14.7586 3.50251 14.9843 3.52391 15.1895 3.60568C15.3947 3.68746 15.57 3.82594 15.6934 4.00362C15.8168 4.18129 15.8826 4.39019 15.8826 4.60388C15.8829 4.74585 15.8541 4.88648 15.7978 5.0177C15.7415 5.14893 15.6588 5.26816 15.5545 5.36854C15.4501 5.46893 15.3262 5.54851 15.1899 5.60269C15.0535 5.65688 14.9074 5.68462 14.7598 5.68432ZM9.89451 6.40435C10.4867 6.40435 11.0656 6.57334 11.558 6.88994C12.0504 7.20654 12.4342 7.65654 12.6608 8.18303C12.8875 8.70952 12.9468 9.28885 12.8312 9.84777C12.7157 10.4067 12.4305 10.9201 12.0118 11.323C11.593 11.726 11.0595 12.0004 10.4787 12.1116C9.89783 12.2228 9.29579 12.1657 8.74866 11.9476C8.20153 11.7295 7.73389 11.3602 7.40487 10.8864C7.07586 10.4126 6.90025 9.85552 6.90025 9.28565C6.9011 8.52174 7.21684 7.78934 7.77819 7.24917C8.33953 6.709 9.10064 6.40517 9.89451 6.40435ZM9.89451 4.9639C9.00624 4.9639 8.13791 5.21736 7.39934 5.69224C6.66077 6.16712 6.08512 6.84209 5.74519 7.63179C5.40527 8.42149 5.31633 9.29045 5.48962 10.1288C5.66291 10.9671 6.09066 11.7372 6.71876 12.3416C7.34686 12.946 8.14712 13.3576 9.01832 13.5244C9.88953 13.6911 10.7926 13.6055 11.6132 13.2784C12.4339 12.9513 13.1353 12.3974 13.6288 11.6867C14.1223 10.976 14.3857 10.1404 14.3857 9.28565C14.3857 8.13945 13.9125 7.0402 13.0703 6.22971C12.228 5.41922 11.0856 4.9639 9.89451 4.9639Z" fill="#030211"/>
</svg>
