<svg width="72" height="69" viewBox="0 0 72 69" fill="none" xmlns="http://www.w3.org/2000/svg">
<path d="M43.5045 65.7178L43.5037 65.7148L36.27 38.7184L36.0112 37.7525L35.0453 38.0113L4.67433 46.1492C4.03552 46.3203 3.35488 46.2307 2.78215 45.9001C2.20941 45.5694 1.79149 45.0247 1.62032 44.3859C1.44915 43.7471 1.53876 43.0665 1.86943 42.4938C2.2001 41.921 2.74475 41.5031 3.38355 41.3319L33.7545 33.1941L34.7204 32.9352L34.4616 31.9693L27.2279 4.97294L27.2271 4.96992C27.0982 4.4948 27.1128 3.99215 27.2691 3.52532L26.3209 3.20783L27.2691 3.52532C27.4241 3.06258 27.7113 2.65556 28.0952 2.3546C28.499 2.06093 28.9772 1.8864 29.4754 1.85098C29.9731 1.8156 30.4706 1.92048 30.9115 2.15355L69.4013 24.3756C69.402 24.376 69.4028 24.3765 69.4035 24.3769C69.9799 24.7141 70.4001 25.265 70.5729 25.9101C70.7458 26.5552 70.6573 27.2424 70.3268 27.8227C70.3264 27.8234 70.3259 27.8242 70.3255 27.8249L48.1009 66.319C47.7524 66.8872 47.2007 67.3017 46.5578 67.478C46.2347 67.5625 45.8989 67.5866 45.5671 67.5491C45.083 67.4809 44.6295 67.2719 44.2632 66.9479C43.8944 66.6217 43.6304 66.1937 43.5045 65.7178Z" stroke="url(#paint0_linear_1_3108)" stroke-width="2"/>
<defs>
<linearGradient id="paint0_linear_1_3108" x1="-1.54363" y1="63.3747" x2="92.0749" y2="45.1983" gradientUnits="userSpaceOnUse">
<stop stop-color="white"/>
</linearGradient>
</defs>
</svg>
