<svg width="19" height="19" viewBox="0 0 19 19" fill="none" xmlns="http://www.w3.org/2000/svg">
<path d="M16.9201 0.507812H2.26951C1.46897 0.507812 0.769531 1.08382 0.769531 1.87495V16.5581C0.769531 17.3535 1.46897 18.0624 2.26951 18.0624H16.9158C17.7206 18.0624 18.3241 17.3488 18.3241 16.5581V1.87495C18.3288 1.08382 17.7206 0.507812 16.9201 0.507812ZM6.21105 15.1404H3.6962V7.32117H6.21105V15.1404ZM5.04062 6.13232H5.02259C4.21775 6.13232 3.6966 5.5332 3.6966 4.78321C3.6966 4.01951 4.23146 3.43449 5.05433 3.43449C5.8772 3.43449 6.38072 4.0152 6.39874 4.78321C6.39835 5.5332 5.8772 6.13232 5.04062 6.13232ZM15.4021 15.1404H12.8873V10.865C12.8873 9.84072 12.5213 9.14089 11.6114 9.14089C10.9163 9.14089 10.5049 9.6111 10.3219 10.0692C10.2533 10.2337 10.2349 10.4579 10.2349 10.6867V15.1404H7.72004V7.32117H10.2349V8.40932C10.6009 7.88817 11.1726 7.13818 12.5029 7.13818C14.1537 7.13818 15.4025 8.22633 15.4025 10.5723L15.4021 15.1404Z" fill="#030211"/>
</svg>
