<svg width="40" height="41" viewBox="0 0 40 41" fill="none" xmlns="http://www.w3.org/2000/svg">
<path d="M19.2103 1.80395C19.6106 1.28858 20.3894 1.28858 20.7897 1.80395L22.4694 3.96617C22.7799 4.36585 23.34 4.47055 23.7739 4.21002L26.1212 2.80058C26.6807 2.46463 27.4068 2.74594 27.594 3.37113L28.3792 5.99411C28.5243 6.47896 29.0088 6.77893 29.5075 6.69274L32.2054 6.22642C32.8485 6.11527 33.424 6.6399 33.3727 7.29048L33.1573 10.02C33.1175 10.5245 33.4609 10.9792 33.957 11.079L36.6412 11.6188C37.281 11.7475 37.6282 12.4445 37.3453 13.0326L36.1584 15.5C35.939 15.9561 36.095 16.5042 36.5216 16.7764L38.8296 18.2494C39.3797 18.6005 39.4515 19.3759 38.9753 19.8221L36.9773 21.6941C36.608 22.0402 36.5554 22.6076 36.8548 23.0156L38.4749 25.2228C38.861 25.7489 38.6479 26.4979 38.0426 26.742L35.5033 27.7658C35.0339 27.9551 34.7799 28.4651 34.9117 28.9538L35.625 31.5972C35.795 32.2273 35.3257 32.8487 34.6732 32.8576L31.9355 32.895C31.4294 32.9019 31.0083 33.2858 30.9547 33.789L30.6649 36.5116C30.5958 37.1606 29.9337 37.5705 29.3221 37.3431L26.7557 36.389C26.2813 36.2126 25.75 36.4185 25.5182 36.8684L24.2645 39.3024C23.9656 39.8826 23.2002 40.0257 22.7119 39.5926L20.6635 37.7759C20.2849 37.4401 19.7151 37.4401 19.3365 37.7759L17.2881 39.5926C16.7998 40.0257 16.0344 39.8826 15.7355 39.3024L14.4818 36.8684C14.25 36.4185 13.7187 36.2126 13.2443 36.389L10.678 37.3431C10.0663 37.5705 9.40418 37.1606 9.3351 36.5116L9.04528 33.789C8.99171 33.2858 8.5706 32.9019 8.06455 32.895L5.32683 32.8576C4.67428 32.8487 4.205 32.2273 4.37501 31.5972L5.08827 28.9538C5.22011 28.4651 4.96612 27.9551 4.49674 27.7658L1.95739 26.742C1.35213 26.4979 1.13902 25.7489 1.52516 25.2228L3.14518 23.0156C3.44463 22.6076 3.39205 22.0402 3.02273 21.6941L1.02471 19.8221C0.548475 19.3759 0.620328 18.6005 1.17044 18.2494L3.47842 16.7764C3.90504 16.5042 4.06098 15.9561 3.8416 15.5L2.65475 13.0326C2.37186 12.4445 2.71897 11.7475 3.35876 11.6188L6.043 11.079C6.53916 10.9792 6.88256 10.5245 6.84275 10.02L6.62736 7.29048C6.57602 6.6399 7.1515 6.11527 7.79457 6.22642L10.4925 6.69274C10.9912 6.77893 11.4757 6.47895 11.6209 5.99411L12.406 3.37113C12.5932 2.74594 13.3193 2.46463 13.8788 2.80058L16.2261 4.21002C16.66 4.47055 17.2201 4.36584 17.5306 3.96617L19.2103 1.80395Z" fill="#030211"/>
<path d="M13.75 20.787H26.25M19.9999 14.5371V27.0371" stroke="white" stroke-width="2" stroke-linecap="round" stroke-linejoin="round"/>
</svg>
