<svg width="121" height="121" viewBox="0 0 121 121" fill="none" xmlns="http://www.w3.org/2000/svg">
<path d="M55.5486 7.32887C57.9315 3.84736 63.0684 3.84737 65.4513 7.32887L66.4841 8.83787C68.3262 11.5294 71.981 12.2563 74.713 10.4747L76.2446 9.4758C79.7784 7.17119 84.5243 9.137 85.3935 13.2654L85.7702 15.0547C86.4421 18.2463 89.5405 20.3166 92.7463 19.716L94.5436 19.3793C98.6904 18.6025 102.323 22.2348 101.546 26.3815L101.209 28.1789C100.609 31.3846 102.679 34.483 105.87 35.155L107.66 35.5317C111.788 36.4009 113.754 41.1467 111.449 44.6805L110.45 46.2122C108.669 48.9441 109.396 52.5989 112.087 54.4411L113.596 55.4739C117.078 57.8568 117.078 62.9937 113.596 65.3765L112.087 66.4093C109.396 68.2515 108.669 71.9063 110.45 74.6382L111.449 76.1699C113.754 79.7037 111.788 84.4495 107.66 85.3187L105.87 85.6954C102.679 86.3674 100.609 89.4658 101.209 92.6716L101.546 94.4689C102.323 98.6156 98.6904 102.248 94.5436 101.471L92.7463 101.134C89.5405 100.534 86.4421 102.604 85.7702 105.796L85.3935 107.585C84.5243 111.713 79.7784 113.679 76.2446 111.375L74.713 110.376C71.981 108.594 68.3262 109.321 66.4841 112.013L65.4513 113.522C63.0684 117.003 57.9315 117.003 55.5486 113.522L54.5158 112.013C52.6736 109.321 49.0189 108.594 46.2869 110.376L44.7553 111.375C41.2215 113.679 36.4756 111.713 35.6064 107.585L35.2297 105.796C34.5577 102.604 31.4594 100.534 28.2536 101.134L26.4563 101.471C22.3095 102.248 18.6772 98.6156 19.454 94.4689L19.7907 92.6716C20.3913 89.4658 18.321 86.3674 15.1295 85.6954L13.3401 85.3187C9.21171 84.4495 7.24591 79.7037 9.55052 76.1699L10.5494 74.6382C12.3311 71.9063 11.6041 68.2515 8.91257 66.4093L7.40358 65.3765C3.92207 62.9937 3.92207 57.8568 7.40358 55.4739L8.91257 54.4411C11.6041 52.5989 12.3311 48.9441 10.5494 46.2122L9.55051 44.6805C7.2459 41.1467 9.21171 36.4009 13.3401 35.5317L15.1295 35.155C18.321 34.483 20.3913 31.3846 19.7907 28.1789L19.454 26.3815C18.6772 22.2348 22.3095 18.6025 26.4563 19.3793L28.2536 19.716C31.4594 20.3166 34.5578 18.2463 35.2297 15.0547L35.6064 13.2654C36.4756 9.13699 41.2215 7.17119 44.7553 9.4758L46.2869 10.4747C49.0189 12.2563 52.6736 11.5294 54.5158 8.83786L55.5486 7.32887Z" fill="white"/>
<path d="M55.3004 46.7581L57.2004 50.1581C56.1337 51.6247 55.1337 53.2581 54.2004 55.0581C53.3337 56.8581 52.8337 58.7247 52.7004 60.6581L58.2004 61.6581V73.1581H42.9004V64.9581C42.9004 60.2247 44.0004 56.4247 46.2004 53.5581C48.4671 50.6247 51.5004 48.3581 55.3004 46.7581ZM75.1004 46.7581L77.0004 50.1581C75.9337 51.6247 74.9337 53.2581 74.0004 55.0581C73.1337 56.8581 72.6337 58.7247 72.5004 60.6581L78.0004 61.6581V73.1581H62.7004V64.9581C62.7004 60.2247 63.8004 56.4247 66.0004 53.5581C68.2671 50.6247 71.3004 48.3581 75.1004 46.7581Z" fill="#030211"/>
</svg>
