<svg width="1327" height="401" viewBox="0 0 1327 401" fill="none" xmlns="http://www.w3.org/2000/svg">
<path d="M1305.88 268.004L1311.48 269.997L1308.93 275.37L1314.3 272.816L1316.3 278.422L1318.29 272.816L1323.66 275.37L1321.11 269.997L1326.71 268.004L1321.11 266.01L1323.66 260.637L1318.29 263.191L1316.3 257.586L1314.3 263.191L1308.93 260.637L1311.48 266.01L1305.88 268.004Z" fill="#D4D4D4"/>
<path d="M1078.6 69.2783L1084.97 71.5428L1082.07 77.6469L1088.17 74.7453L1090.43 81.1132L1092.7 74.7453L1098.8 77.6469L1095.9 71.5428L1102.27 69.2783L1095.9 67.0138L1098.8 60.9097L1092.7 63.8113L1090.43 57.4434L1088.17 63.8113L1082.07 60.9097L1084.97 67.0138L1078.6 69.2783Z" fill="#D4D4D4"/>
<path d="M1272.12 19.5769L1282.49 23.2637L1277.76 33.2016L1287.7 28.4776L1291.39 38.8451L1295.08 28.4776L1305.01 33.2016L1300.29 23.2637L1310.66 19.5769L1300.29 15.89L1305.01 5.95214L1295.08 10.6761L1291.39 0.308593L1287.7 10.6761L1277.76 5.95214L1282.49 15.89L1272.12 19.5769Z" fill="#1C1C1C"/>
<path d="M1133.13 387.046L1140.29 389.593L1137.03 396.456L1143.89 393.193L1146.44 400.353L1148.98 393.193L1155.84 396.456L1152.58 389.593L1159.74 387.046L1152.58 384.5L1155.84 377.637L1148.98 380.899L1146.44 373.739L1143.89 380.899L1137.03 377.637L1140.29 384.5L1133.13 387.046Z" fill="#030211"/>
<path d="M10.0576 270.17L16.3481 272.407L13.4818 278.437L19.5116 275.571L21.7486 281.861L23.9856 275.571L30.0154 278.437L27.1492 272.407L33.4396 270.17L27.1492 267.934L30.0154 261.904L23.9856 264.77L21.7486 258.479L19.5116 264.77L13.4818 261.904L16.3481 267.934L10.0576 270.17Z" fill="#D4D4D4"/>
<path d="M0.770997 43.6991L6.83725 45.8563L4.07316 51.6712L9.88805 48.9071L12.0453 54.9734L14.2025 48.9071L20.0174 51.6712L17.2533 45.8563L23.3196 43.6991L17.2533 41.5419L20.0174 35.727L14.2025 38.4911L12.0453 32.4248L9.88805 38.4911L4.07316 35.727L6.83724 41.5419L0.770997 43.6991Z" fill="#1C1C1C"/>
<path d="M219.968 48.0411L226.863 50.4932L223.721 57.103L230.331 53.961L232.783 60.8565L235.235 53.961L241.845 57.103L238.703 50.4932L245.599 48.0411L238.703 45.5889L241.845 38.9792L235.235 42.1211L232.783 35.2256L230.331 42.1211L223.721 38.9792L226.863 45.5889L219.968 48.0411Z" fill="#D5D5D5"/>
<path d="M180.156 376.857L186.64 379.163L183.685 385.378L189.901 382.424L192.207 388.908L194.513 382.424L200.728 385.378L197.774 379.163L204.258 376.857L197.774 374.551L200.728 368.335L194.513 371.29L192.207 364.806L189.901 371.29L183.685 368.335L186.64 374.551L180.156 376.857Z" fill="#1C1C1C"/>
</svg>
