<svg width="18" height="15" viewBox="0 0 18 15" fill="none" xmlns="http://www.w3.org/2000/svg">
<path d="M17.7699 1.99992C17.1199 2.28217 16.4321 2.46812 15.7283 2.5519C16.4679 2.11911 17.0241 1.43155 17.2926 0.618161C16.5933 1.02677 15.8296 1.31347 15.034 1.46598C14.699 1.11514 14.2961 0.836033 13.8498 0.645632C13.4035 0.455231 12.9231 0.357508 12.4378 0.358405C10.4731 0.358405 8.88313 1.92416 8.88313 3.85429C8.88174 4.12277 8.91253 4.39044 8.97483 4.6516C7.56598 4.5856 6.18642 4.22646 4.92442 3.59715C3.66243 2.96785 2.54577 2.08223 1.64591 0.996972C1.33022 1.52879 1.16326 2.13559 1.16249 2.75394C1.16249 3.96613 1.79538 5.03763 2.75103 5.66537C2.18483 5.65194 1.63024 5.50219 1.13433 5.22884V5.27213C1.13433 6.96776 2.36184 8.37838 3.98647 8.69947C3.68096 8.78085 3.36614 8.82209 3.04996 8.82213C2.82561 8.82252 2.60176 8.80077 2.38169 8.75719C2.83334 10.1462 4.14785 11.1563 5.70498 11.1852C4.4397 12.1596 2.88628 12.6863 1.28885 12.6824C1.0053 12.682 0.722021 12.6651 0.44043 12.6319C2.06549 13.6688 3.9545 14.2173 5.88261 14.2121C12.4303 14.2121 16.0074 8.88346 16.0074 4.26197C16.0074 4.11044 16.0034 3.95892 15.9962 3.811C16.6905 3.31748 17.2911 2.70419 17.7699 1.99992Z" fill="#030211"/>
</svg>
