<svg width="50" height="50" viewBox="0 0 50 50" fill="none" xmlns="http://www.w3.org/2000/svg">
<g id="Icon">
<path id="Star 1" d="M24.682 2.01659C25.0824 1.50122 25.8611 1.50122 26.2615 2.01659L28.6149 5.04616C28.9254 5.44584 29.4855 5.55054 29.9194 5.29002L33.2083 3.31519C33.7678 2.97924 34.494 3.26055 34.6811 3.88575L35.7812 7.5609C35.9264 8.04574 36.4108 8.34572 36.9095 8.25952L40.6898 7.60615C41.3328 7.495 41.9083 8.01963 41.857 8.67021L41.5552 12.4946C41.5154 12.9991 41.8588 13.4539 42.3549 13.5536L46.1159 14.31C46.7557 14.4386 47.1028 15.1357 46.8199 15.7238L45.157 19.1809C44.9376 19.637 45.0936 20.1851 45.5202 20.4573L48.754 22.5212C49.3041 22.8723 49.3759 23.6477 48.8997 24.0939L46.1002 26.7169C45.7309 27.0629 45.6783 27.6303 45.9777 28.0383L48.2476 31.131C48.6338 31.6571 48.4206 32.4061 47.8154 32.6501L44.2574 34.0846C43.788 34.2739 43.534 34.784 43.6659 35.2726L44.6653 38.9764C44.8353 39.6065 44.366 40.2279 43.7134 40.2368L39.8775 40.2892C39.3715 40.2961 38.9504 40.68 38.8968 41.1832L38.4907 44.998C38.4216 45.6469 37.7596 46.0568 37.1479 45.8294L33.552 44.4926C33.0777 44.3162 32.5463 44.522 32.3146 44.972L30.5579 48.3824C30.259 48.9626 29.4936 49.1056 29.0053 48.6726L26.1353 46.1271C25.7567 45.7913 25.1868 45.7913 24.8082 46.1271L21.9381 48.6726C21.4499 49.1056 20.6844 48.9626 20.3856 48.3824L18.6289 44.972C18.3972 44.522 17.8658 44.3162 17.3914 44.4926L13.7956 45.8294C13.1839 46.0568 12.5218 45.6469 12.4528 44.998L12.0467 41.1832C11.9931 40.68 11.572 40.2961 11.066 40.2892L7.23004 40.2368C6.5775 40.2279 6.10821 39.6065 6.27822 38.9764L7.2776 35.2726C7.40944 34.784 7.15545 34.2739 6.68607 34.0846L3.1281 32.6501C2.52284 32.4061 2.30973 31.6571 2.69586 31.131L4.96573 28.0383C5.26518 27.6303 5.2126 27.0629 4.84328 26.7169L2.04379 24.0939C1.56755 23.6477 1.63941 22.8723 2.18952 22.5212L5.42331 20.4573C5.84993 20.1851 6.00587 19.637 5.78649 19.1809L4.12355 15.7238C3.84066 15.1357 4.18777 14.4386 4.82756 14.31L8.58854 13.5536C9.08471 13.4539 9.42811 12.9991 9.38829 12.4946L9.0865 8.6702C9.03516 8.01962 9.61065 7.495 10.2537 7.60615L14.0339 8.25952C14.5326 8.34572 15.0171 8.04574 15.1623 7.5609L16.2624 3.88575C16.4495 3.26055 17.1757 2.97924 17.7352 3.31519L21.0241 5.29002C21.458 5.55054 22.0181 5.44584 22.3286 5.04616L24.682 2.01659Z" stroke="#030211" stroke-opacity="0.6" stroke-width="1.5"/>
<path id="Vector" d="M15 21.1429H22.8571M22.8571 21.1429C22.8571 22.3263 23.8165 23.2857 25 23.2857C26.1835 23.2857 27.1429 22.3263 27.1429 21.1429M22.8571 21.1429C22.8571 19.9594 23.8165 19 25 19C26.1835 19 27.1429 19.9594 27.1429 21.1429M27.1429 21.1429H35M27.125 21.4375C28.5391 21.8345 29.8138 22.6195 30.8047 23.7035C31.7957 24.7876 32.4634 26.1275 32.7321 27.5714M17.2679 27.5714C17.5366 26.1275 18.2043 24.7876 19.1953 23.7035C20.1862 22.6195 21.4609 21.8345 22.875 21.4375M19.2857 29.7143C19.2857 30.8978 18.3263 31.8571 17.1429 31.8571C15.9594 31.8571 15 30.8978 15 29.7143C15 28.5308 15.9594 27.5714 17.1429 27.5714C18.3263 27.5714 19.2857 28.5308 19.2857 29.7143ZM35 29.7143C35 30.8978 34.0406 31.8571 32.8571 31.8571C31.6737 31.8571 30.7143 30.8978 30.7143 29.7143C30.7143 28.5308 31.6737 27.5714 32.8571 27.5714C34.0406 27.5714 35 28.5308 35 29.7143Z" stroke="black" stroke-width="2" stroke-linecap="round" stroke-linejoin="round"/>
</g>
</svg>
