<svg width="263" height="7" viewBox="0 0 263 7" fill="none" xmlns="http://www.w3.org/2000/svg">
<path d="M0.762695 1.5249C5.26268 1.5249 5.26268 5.35339 9.78883 5.35339C14.2888 5.35339 14.2888 1.5249 18.7888 1.5249C23.2888 1.5249 23.2888 5.35339 27.8149 5.35339C32.3149 5.35339 32.3149 1.5249 36.8411 1.5249C41.341 1.5249 41.341 5.35339 45.8672 5.35339C50.3672 5.35339 50.3672 1.5249 54.8933 1.5249C59.3933 1.5249 59.3933 5.35339 63.9195 5.35339C68.4194 5.35339 68.4194 1.5249 72.9456 1.5249C77.4456 1.5249 77.4456 5.35339 81.9717 5.35339C86.4717 5.35339 86.4717 1.5249 90.9979 1.5249C95.4978 1.5249 95.4978 5.35339 100.024 5.35339C104.524 5.35339 104.524 1.5249 109.05 1.5249C113.55 1.5249 113.55 5.35339 118.076 5.35339C122.576 5.35339 122.576 1.5249 127.076 1.5249C131.576 1.5249 131.576 5.35339 136.102 5.35339C140.602 5.35339 140.602 1.5249 145.102 1.5249C149.602 1.5249 149.602 5.35339 154.128 5.35339C158.628 5.35339 158.628 1.5249 163.155 1.5249C167.655 1.5249 167.655 5.35339 172.181 5.35339C176.681 5.35339 176.681 1.5249 181.207 1.5249C185.707 1.5249 185.707 5.35339 190.233 5.35339C194.759 5.35339 194.759 1.5249 199.259 1.5249C203.759 1.5249 203.785 5.35339 208.285 5.35339C212.785 5.35339 212.785 1.5249 217.311 1.5249C221.838 1.5249 221.838 5.35339 226.338 5.35339C230.864 5.35339 230.864 1.5249 235.364 1.5249C239.89 1.5249 239.89 5.35339 244.39 5.35339C248.916 5.35339 248.916 1.5249 253.442 1.5249C257.968 1.5249 257.968 5.35339 262.494 5.35339" stroke="#1C6C89" stroke-width="2" stroke-miterlimit="10"/>
</svg>
